<mxfile host="app.diagrams.net" modified="2023-10-22T05:26:17.563Z" agent="Mozilla/5.0 (Macintosh; Intel Mac OS X 10_15_7) AppleWebKit/537.36 (KHTML, like Gecko) Chrome/118.0.0.0 Safari/537.36" etag="5nZRlRxkUSBbNJgK8_Jp" version="22.0.6" type="github">
  <diagram name="Page-1" id="ccDm2Es830cC8SDJtkiW">
    <mxGraphModel dx="406" dy="233" grid="1" gridSize="10" guides="1" tooltips="1" connect="1" arrows="1" fold="1" page="1" pageScale="1" pageWidth="850" pageHeight="1100" math="1" shadow="0">
      <root>
        <mxCell id="0" />
        <mxCell id="1" parent="0" />
        <mxCell id="om-M0COcxJ-jairlj6dW-5" value="" style="endArrow=none;dashed=1;html=1;dashPattern=1 3;strokeWidth=2;rounded=0;entryX=1;entryY=0.75;entryDx=0;entryDy=0;" parent="1" edge="1">
          <mxGeometry width="50" height="50" relative="1" as="geometry">
            <mxPoint x="317.4999215390542" y="241.48198923507528" as="sourcePoint" />
            <mxPoint x="482.5" y="240.51" as="targetPoint" />
          </mxGeometry>
        </mxCell>
        <mxCell id="om-M0COcxJ-jairlj6dW-7" value="" style="endArrow=none;dashed=1;html=1;dashPattern=1 3;strokeWidth=2;rounded=0;entryX=0.883;entryY=0.783;entryDx=0;entryDy=0;entryPerimeter=0;exitX=1;exitY=0.5;exitDx=0;exitDy=0;" parent="1" edge="1">
          <mxGeometry width="50" height="50" relative="1" as="geometry">
            <mxPoint x="317" y="280" as="sourcePoint" />
            <mxPoint x="482.98" y="280.99" as="targetPoint" />
          </mxGeometry>
        </mxCell>
        <mxCell id="om-M0COcxJ-jairlj6dW-8" value="" style="endArrow=none;dashed=1;html=1;dashPattern=1 3;strokeWidth=2;rounded=0;entryX=1;entryY=0.75;entryDx=0;entryDy=0;" parent="1" edge="1">
          <mxGeometry width="50" height="50" relative="1" as="geometry">
            <mxPoint x="280" y="201" as="sourcePoint" />
            <mxPoint x="485" y="200" as="targetPoint" />
          </mxGeometry>
        </mxCell>
        <mxCell id="om-M0COcxJ-jairlj6dW-10" value="" style="endArrow=none;dashed=1;html=1;dashPattern=1 3;strokeWidth=2;rounded=0;entryX=1;entryY=0.75;entryDx=0;entryDy=0;" parent="1" edge="1">
          <mxGeometry width="50" height="50" relative="1" as="geometry">
            <mxPoint x="280" y="161" as="sourcePoint" />
            <mxPoint x="487" y="162" as="targetPoint" />
          </mxGeometry>
        </mxCell>
        <mxCell id="om-M0COcxJ-jairlj6dW-11" value="E&lt;sub&gt;1&lt;/sub&gt;" style="text;html=1;strokeColor=none;fillColor=none;align=center;verticalAlign=middle;whiteSpace=wrap;rounded=0;" parent="1" vertex="1">
          <mxGeometry x="240" y="187" width="60" height="30" as="geometry" />
        </mxCell>
        <mxCell id="om-M0COcxJ-jairlj6dW-12" value="E&lt;sub&gt;2&lt;/sub&gt;" style="text;html=1;strokeColor=none;fillColor=none;align=center;verticalAlign=middle;whiteSpace=wrap;rounded=0;" parent="1" vertex="1">
          <mxGeometry x="239" y="144.5" width="60" height="30" as="geometry" />
        </mxCell>
        <mxCell id="om-M0COcxJ-jairlj6dW-14" value="E&lt;sub&gt;-1&lt;/sub&gt;" style="text;html=1;strokeColor=none;fillColor=none;align=center;verticalAlign=middle;whiteSpace=wrap;rounded=0;" parent="1" vertex="1">
          <mxGeometry x="239" y="226" width="60" height="30" as="geometry" />
        </mxCell>
        <mxCell id="om-M0COcxJ-jairlj6dW-16" value="E&lt;sub&gt;-2&lt;/sub&gt;" style="text;html=1;strokeColor=none;fillColor=none;align=center;verticalAlign=middle;whiteSpace=wrap;rounded=0;" parent="1" vertex="1">
          <mxGeometry x="239" y="266" width="60" height="30" as="geometry" />
        </mxCell>
        <mxCell id="om-M0COcxJ-jairlj6dW-18" value="" style="endArrow=classic;html=1;rounded=0;strokeWidth=2;" parent="1" edge="1">
          <mxGeometry width="50" height="50" relative="1" as="geometry">
            <mxPoint x="481" y="288.5" as="sourcePoint" />
            <mxPoint x="481" y="128.5" as="targetPoint" />
          </mxGeometry>
        </mxCell>
        <mxCell id="om-M0COcxJ-jairlj6dW-28" value="" style="endArrow=classic;startArrow=classic;html=1;rounded=0;" parent="1" edge="1">
          <mxGeometry width="50" height="50" relative="1" as="geometry">
            <mxPoint x="500" y="239.5" as="sourcePoint" />
            <mxPoint x="500" y="199.5" as="targetPoint" />
          </mxGeometry>
        </mxCell>
        <mxCell id="om-M0COcxJ-jairlj6dW-34" value="" style="endArrow=none;dashed=1;html=1;dashPattern=1 3;strokeWidth=2;rounded=0;" parent="1" edge="1">
          <mxGeometry width="50" height="50" relative="1" as="geometry">
            <mxPoint x="280" y="241" as="sourcePoint" />
            <mxPoint x="310.0018754690043" y="241.8630650813426" as="targetPoint" />
          </mxGeometry>
        </mxCell>
        <mxCell id="om-M0COcxJ-jairlj6dW-36" value="" style="endArrow=none;dashed=1;html=1;dashPattern=1 3;strokeWidth=2;rounded=0;" parent="1" edge="1">
          <mxGeometry width="50" height="50" relative="1" as="geometry">
            <mxPoint x="280" y="281" as="sourcePoint" />
            <mxPoint x="310" y="281" as="targetPoint" />
          </mxGeometry>
        </mxCell>
        <mxCell id="om-M0COcxJ-jairlj6dW-40" value="3e&lt;sup&gt;2&lt;/sup&gt;/4C" style="text;html=1;strokeColor=none;fillColor=none;align=center;verticalAlign=middle;whiteSpace=wrap;rounded=0;" parent="1" vertex="1">
          <mxGeometry x="425" y="137" width="60" height="30" as="geometry" />
        </mxCell>
        <mxCell id="om-M0COcxJ-jairlj6dW-41" value="e&lt;sup&gt;2&lt;/sup&gt;/4C" style="text;html=1;strokeColor=none;fillColor=none;align=center;verticalAlign=middle;whiteSpace=wrap;rounded=0;" parent="1" vertex="1">
          <mxGeometry x="425" y="174.5" width="60" height="30" as="geometry" />
        </mxCell>
        <mxCell id="om-M0COcxJ-jairlj6dW-42" value="-e&lt;sup&gt;2&lt;/sup&gt;/4C" style="text;html=1;strokeColor=none;fillColor=none;align=center;verticalAlign=middle;whiteSpace=wrap;rounded=0;" parent="1" vertex="1">
          <mxGeometry x="425" y="215.5" width="60" height="30" as="geometry" />
        </mxCell>
        <mxCell id="om-M0COcxJ-jairlj6dW-43" value="-3e&lt;sup&gt;2&lt;/sup&gt;/4C" style="text;html=1;strokeColor=none;fillColor=none;align=center;verticalAlign=middle;whiteSpace=wrap;rounded=0;" parent="1" vertex="1">
          <mxGeometry x="427" y="254.5" width="60" height="30" as="geometry" />
        </mxCell>
        <mxCell id="om-M0COcxJ-jairlj6dW-44" value="&lt;b style=&quot;font-size: 16px;&quot;&gt;E&lt;/b&gt;" style="text;html=1;strokeColor=none;fillColor=none;align=center;verticalAlign=middle;whiteSpace=wrap;rounded=0;fontFamily=Times New Roman;fontSize=16;" parent="1" vertex="1">
          <mxGeometry x="470" y="110" width="60" height="30" as="geometry" />
        </mxCell>
        <mxCell id="om-M0COcxJ-jairlj6dW-47" value="" style="rounded=0;whiteSpace=wrap;html=1;gradientColor=none;gradientDirection=north;fillColor=#FF0000;shadow=0;sketch=1;curveFitting=1;jiggle=2;glass=0;strokeColor=none;" parent="1" vertex="1">
          <mxGeometry x="220" y="200.25" width="30" height="39.5" as="geometry" />
        </mxCell>
        <mxCell id="om-M0COcxJ-jairlj6dW-55" value="" style="rounded=0;whiteSpace=wrap;html=1;strokeColor=none;sketch=1;curveFitting=1;jiggle=2;fillColor=#FF0000;" parent="1" vertex="1">
          <mxGeometry x="370" y="200.25" width="30" height="39.75" as="geometry" />
        </mxCell>
        <mxCell id="om-M0COcxJ-jairlj6dW-56" value="E&lt;span style=&quot;font-size: 10px;&quot;&gt;&lt;sub&gt;FS&lt;/sub&gt;&lt;/span&gt;" style="text;html=1;strokeColor=none;fillColor=none;align=center;verticalAlign=middle;whiteSpace=wrap;rounded=0;fontFamily=Times New Roman;" parent="1" vertex="1">
          <mxGeometry x="179" y="183.5" width="60" height="30" as="geometry" />
        </mxCell>
        <mxCell id="om-M0COcxJ-jairlj6dW-57" value="E&lt;span style=&quot;font-size: 10px;&quot;&gt;&lt;sub&gt;FD&lt;/sub&gt;&lt;/span&gt;" style="text;html=1;strokeColor=none;fillColor=none;align=center;verticalAlign=middle;whiteSpace=wrap;rounded=0;fontFamily=Times New Roman;" parent="1" vertex="1">
          <mxGeometry x="370" y="176" width="60" height="30" as="geometry" />
        </mxCell>
        <mxCell id="om-M0COcxJ-jairlj6dW-58" value="source" style="text;html=1;strokeColor=none;fillColor=none;align=center;verticalAlign=middle;whiteSpace=wrap;rounded=0;fontFamily=Times New Roman;" parent="1" vertex="1">
          <mxGeometry x="190" y="233.5" width="60" height="30" as="geometry" />
        </mxCell>
        <mxCell id="om-M0COcxJ-jairlj6dW-59" value="drain" style="text;html=1;strokeColor=none;fillColor=none;align=center;verticalAlign=middle;whiteSpace=wrap;rounded=0;fontFamily=Times New Roman;" parent="1" vertex="1">
          <mxGeometry x="365" y="235" width="60" height="30" as="geometry" />
        </mxCell>
        <mxCell id="om-M0COcxJ-jairlj6dW-61" value="&lt;h2&gt;&lt;svg style=&quot;vertical-align: -0.667ex;&quot; xmlns:xlink=&quot;http://www.w3.org/1999/xlink&quot; viewBox=&quot;0 -716 2836.8 1011&quot; role=&quot;img&quot; height=&quot;2.287ex&quot; width=&quot;6.418ex&quot; xmlns=&quot;http://www.w3.org/2000/svg&quot;&gt;&lt;defs&gt;&lt;path d=&quot;M52 648Q52 670 65 683H76Q118 680 181 680Q299 680 320 683H330Q336 677 336 674T334 656Q329 641 325 637H304Q282 635 274 635Q245 630 242 620Q242 618 271 369T301 118L374 235Q447 352 520 471T595 594Q599 601 599 609Q599 633 555 637Q537 637 537 648Q537 649 539 661Q542 675 545 679T558 683Q560 683 570 683T604 682T668 681Q737 681 755 683H762Q769 676 769 672Q769 655 760 640Q757 637 743 637Q730 636 719 635T698 630T682 623T670 615T660 608T652 599T645 592L452 282Q272 -9 266 -16Q263 -18 259 -21L241 -22H234Q216 -22 216 -15Q213 -9 177 305Q139 623 138 626Q133 637 76 637H59Q52 642 52 648Z&quot; id=&quot;MJX-2-TEX-I-1D449&quot;&gt;&lt;/path&gt;&lt;path d=&quot;M311 43Q296 30 267 15T206 0Q143 0 105 45T66 160Q66 265 143 353T314 442Q361 442 401 394L404 398Q406 401 409 404T418 412T431 419T447 422Q461 422 470 413T480 394Q480 379 423 152T363 -80Q345 -134 286 -169T151 -205Q10 -205 10 -137Q10 -111 28 -91T74 -71Q89 -71 102 -80T116 -111Q116 -121 114 -130T107 -144T99 -154T92 -162L90 -164H91Q101 -167 151 -167Q189 -167 211 -155Q234 -144 254 -122T282 -75Q288 -56 298 -13Q311 35 311 43ZM384 328L380 339Q377 350 375 354T369 368T359 382T346 393T328 402T306 405Q262 405 221 352Q191 313 171 233T151 117Q151 38 213 38Q269 38 323 108L331 118L384 328Z&quot; id=&quot;MJX-2-TEX-I-1D454&quot;&gt;&lt;/path&gt;&lt;path d=&quot;M166 -215T159 -215T147 -212T141 -204T139 -197Q139 -190 144 -183L306 133H70Q56 140 56 153Q56 168 72 173H327L406 327H72Q56 332 56 347Q56 360 70 367H426Q597 702 602 707Q605 716 618 716Q625 716 630 712T636 703T638 696Q638 692 471 367H707Q722 359 722 347Q722 336 708 328L451 327L371 173H708Q722 163 722 153Q722 140 707 133H351Q175 -210 170 -212Q166 -215 159 -215Z&quot; id=&quot;MJX-2-TEX-N-2260&quot;&gt;&lt;/path&gt;&lt;path d=&quot;M96 585Q152 666 249 666Q297 666 345 640T423 548Q460 465 460 320Q460 165 417 83Q397 41 362 16T301 -15T250 -22Q224 -22 198 -16T137 16T82 83Q39 165 39 320Q39 494 96 585ZM321 597Q291 629 250 629Q208 629 178 597Q153 571 145 525T137 333Q137 175 145 125T181 46Q209 16 250 16Q290 16 318 46Q347 76 354 130T362 333Q362 478 354 524T321 597Z&quot; id=&quot;MJX-2-TEX-N-30&quot;&gt;&lt;/path&gt;&lt;/defs&gt;&lt;g transform=&quot;scale(1,-1)&quot; stroke-width=&quot;0&quot; fill=&quot;currentColor&quot; stroke=&quot;currentColor&quot;&gt;&lt;g data-mml-node=&quot;math&quot;&gt;&lt;g data-mml-node=&quot;msub&quot;&gt;&lt;g data-mml-node=&quot;mi&quot;&gt;&lt;use xlink:href=&quot;#MJX-2-TEX-I-1D449&quot; data-c=&quot;1D449&quot;&gt;&lt;/use&gt;&lt;/g&gt;&lt;g transform=&quot;translate(616,-150) scale(0.707)&quot; data-mml-node=&quot;mi&quot;&gt;&lt;use xlink:href=&quot;#MJX-2-TEX-I-1D454&quot; data-c=&quot;1D454&quot;&gt;&lt;/use&gt;&lt;/g&gt;&lt;/g&gt;&lt;g transform=&quot;translate(1281.1,0)&quot; data-mml-node=&quot;mo&quot;&gt;&lt;use xlink:href=&quot;#MJX-2-TEX-N-2260&quot; data-c=&quot;2260&quot;&gt;&lt;/use&gt;&lt;/g&gt;&lt;g transform=&quot;translate(2336.8,0)&quot; data-mml-node=&quot;mn&quot;&gt;&lt;use xlink:href=&quot;#MJX-2-TEX-N-30&quot; data-c=&quot;30&quot;&gt;&lt;/use&gt;&lt;/g&gt;&lt;/g&gt;&lt;/g&gt;&lt;/svg&gt;&lt;/h2&gt;" style="text;html=1;strokeColor=none;fillColor=none;spacing=5;spacingTop=-20;whiteSpace=wrap;overflow=hidden;rounded=0;fontStyle=1" parent="1" vertex="1">
          <mxGeometry x="160" y="93.5" width="190" height="120" as="geometry" />
        </mxCell>
        <mxCell id="pr9z12Uie0TUpxlH-9C3-5" value="" style="endArrow=none;html=1;rounded=0;entryX=0;entryY=0;entryDx=0;entryDy=0;" edge="1" parent="1">
          <mxGeometry width="50" height="50" relative="1" as="geometry">
            <mxPoint x="250" y="320" as="sourcePoint" />
            <mxPoint x="250" y="120" as="targetPoint" />
          </mxGeometry>
        </mxCell>
        <mxCell id="pr9z12Uie0TUpxlH-9C3-6" value="" style="endArrow=none;html=1;rounded=0;" edge="1" parent="1">
          <mxGeometry width="50" height="50" relative="1" as="geometry">
            <mxPoint x="280" y="320" as="sourcePoint" />
            <mxPoint x="280" y="140" as="targetPoint" />
          </mxGeometry>
        </mxCell>
        <mxCell id="pr9z12Uie0TUpxlH-9C3-7" value="" style="endArrow=none;html=1;rounded=0;" edge="1" parent="1">
          <mxGeometry width="50" height="50" relative="1" as="geometry">
            <mxPoint x="250" y="120" as="sourcePoint" />
            <mxPoint x="280" y="140" as="targetPoint" />
          </mxGeometry>
        </mxCell>
        <mxCell id="pr9z12Uie0TUpxlH-9C3-8" value="" style="ellipse;whiteSpace=wrap;html=1;aspect=fixed;fillColor=#011999;" vertex="1" parent="1">
          <mxGeometry x="304" y="195" width="10" height="10" as="geometry" />
        </mxCell>
        <mxCell id="pr9z12Uie0TUpxlH-9C3-9" value="" style="ellipse;whiteSpace=wrap;html=1;aspect=fixed;fillColor=#011999;" vertex="1" parent="1">
          <mxGeometry x="304" y="236" width="10" height="10" as="geometry" />
        </mxCell>
        <mxCell id="pr9z12Uie0TUpxlH-9C3-10" value="" style="ellipse;whiteSpace=wrap;html=1;aspect=fixed;fillColor=#011999;" vertex="1" parent="1">
          <mxGeometry x="304" y="275" width="10" height="10" as="geometry" />
        </mxCell>
        <mxCell id="pr9z12Uie0TUpxlH-9C3-14" value="" style="endArrow=none;html=1;rounded=0;entryX=0;entryY=0;entryDx=0;entryDy=0;" edge="1" parent="1">
          <mxGeometry width="50" height="50" relative="1" as="geometry">
            <mxPoint x="370" y="320" as="sourcePoint" />
            <mxPoint x="370" y="120" as="targetPoint" />
          </mxGeometry>
        </mxCell>
        <mxCell id="pr9z12Uie0TUpxlH-9C3-15" value="" style="endArrow=none;html=1;rounded=0;" edge="1" parent="1">
          <mxGeometry width="50" height="50" relative="1" as="geometry">
            <mxPoint x="340" y="320" as="sourcePoint" />
            <mxPoint x="340" y="140" as="targetPoint" />
          </mxGeometry>
        </mxCell>
        <mxCell id="pr9z12Uie0TUpxlH-9C3-17" value="" style="endArrow=none;html=1;rounded=0;" edge="1" parent="1">
          <mxGeometry width="50" height="50" relative="1" as="geometry">
            <mxPoint x="340" y="140" as="sourcePoint" />
            <mxPoint x="370" y="120" as="targetPoint" />
          </mxGeometry>
        </mxCell>
        <mxCell id="pr9z12Uie0TUpxlH-9C3-18" value="&lt;svg style=&quot;vertical-align: -1.602ex;&quot; xmlns:xlink=&quot;http://www.w3.org/1999/xlink&quot; viewBox=&quot;0 -1509.9 1700 2217.9&quot; role=&quot;img&quot; height=&quot;5.018ex&quot; width=&quot;3.846ex&quot; xmlns=&quot;http://www.w3.org/2000/svg&quot;&gt;&lt;defs&gt;&lt;path d=&quot;M39 168Q39 225 58 272T107 350T174 402T244 433T307 442H310Q355 442 388 420T421 355Q421 265 310 237Q261 224 176 223Q139 223 138 221Q138 219 132 186T125 128Q125 81 146 54T209 26T302 45T394 111Q403 121 406 121Q410 121 419 112T429 98T420 82T390 55T344 24T281 -1T205 -11Q126 -11 83 42T39 168ZM373 353Q367 405 305 405Q272 405 244 391T199 357T170 316T154 280T149 261Q149 260 169 260Q282 260 327 284T373 353Z&quot; id=&quot;MJX-3-TEX-I-1D452&quot;&gt;&lt;/path&gt;&lt;path d=&quot;M109 429Q82 429 66 447T50 491Q50 562 103 614T235 666Q326 666 387 610T449 465Q449 422 429 383T381 315T301 241Q265 210 201 149L142 93L218 92Q375 92 385 97Q392 99 409 186V189H449V186Q448 183 436 95T421 3V0H50V19V31Q50 38 56 46T86 81Q115 113 136 137Q145 147 170 174T204 211T233 244T261 278T284 308T305 340T320 369T333 401T340 431T343 464Q343 527 309 573T212 619Q179 619 154 602T119 569T109 550Q109 549 114 549Q132 549 151 535T170 489Q170 464 154 447T109 429Z&quot; id=&quot;MJX-3-TEX-N-32&quot;&gt;&lt;/path&gt;&lt;path d=&quot;M50 252Q50 367 117 473T286 641T490 704Q580 704 633 653Q642 643 648 636T656 626L657 623Q660 623 684 649Q691 655 699 663T715 679T725 690L740 705H746Q760 705 760 698Q760 694 728 561Q692 422 692 421Q690 416 687 415T669 413H653Q647 419 647 422Q647 423 648 429T650 449T651 481Q651 552 619 605T510 659Q484 659 454 652T382 628T299 572T226 479Q194 422 175 346T156 222Q156 108 232 58Q280 24 350 24Q441 24 512 92T606 240Q610 253 612 255T628 257Q648 257 648 248Q648 243 647 239Q618 132 523 55T319 -22Q206 -22 128 53T50 252Z&quot; id=&quot;MJX-3-TEX-I-1D436&quot;&gt;&lt;/path&gt;&lt;/defs&gt;&lt;g transform=&quot;scale(1,-1)&quot; stroke-width=&quot;0&quot; fill=&quot;currentColor&quot; stroke=&quot;currentColor&quot;&gt;&lt;g data-mml-node=&quot;math&quot;&gt;&lt;g data-mml-node=&quot;mfrac&quot;&gt;&lt;g transform=&quot;translate(398.7,676)&quot; data-mml-node=&quot;msup&quot;&gt;&lt;g data-mml-node=&quot;mi&quot;&gt;&lt;use xlink:href=&quot;#MJX-3-TEX-I-1D452&quot; data-c=&quot;1D452&quot;&gt;&lt;/use&gt;&lt;/g&gt;&lt;g transform=&quot;translate(499,363) scale(0.707)&quot; data-mml-node=&quot;mn&quot;&gt;&lt;use xlink:href=&quot;#MJX-3-TEX-N-32&quot; data-c=&quot;32&quot;&gt;&lt;/use&gt;&lt;/g&gt;&lt;/g&gt;&lt;g transform=&quot;translate(220,-686)&quot; data-mml-node=&quot;mrow&quot;&gt;&lt;g data-mml-node=&quot;mn&quot;&gt;&lt;use xlink:href=&quot;#MJX-3-TEX-N-32&quot; data-c=&quot;32&quot;&gt;&lt;/use&gt;&lt;/g&gt;&lt;g transform=&quot;translate(500,0)&quot; data-mml-node=&quot;mi&quot;&gt;&lt;use xlink:href=&quot;#MJX-3-TEX-I-1D436&quot; data-c=&quot;1D436&quot;&gt;&lt;/use&gt;&lt;/g&gt;&lt;/g&gt;&lt;rect y=&quot;220&quot; x=&quot;120&quot; height=&quot;60&quot; width=&quot;1460&quot;&gt;&lt;/rect&gt;&lt;/g&gt;&lt;/g&gt;&lt;/g&gt;&lt;/svg&gt;" style="text;html=1;strokeColor=none;fillColor=none;align=center;verticalAlign=middle;whiteSpace=wrap;rounded=0;" vertex="1" parent="1">
          <mxGeometry x="487" y="200.25" width="60" height="30" as="geometry" />
        </mxCell>
      </root>
    </mxGraphModel>
  </diagram>
</mxfile>
